<svg width="264" height="56" viewBox="0 0 264 56" fill="none" xmlns="http://www.w3.org/2000/svg">
		<path
			d="M33.776 25.5579L36.3303 24.2318V4.21515H34.3988L29.6807 10.4559H29.1477L29.4485 3.49951H49.9041L50.1996 10.4559H49.6402L45.0171 4.21515H43.038V24.1897L45.6082 25.5421V26.2209H33.776V25.5579Z"
			fill="white"
		/>
		<path
			d="M52.2526 24.6736V2.48893L50.2682 1.69963V1.28393L57.4404 0H58.195V10.4977L58.3956 10.3293C59.9841 8.94542 62.264 8.05614 64.5439 8.05614C67.684 8.05614 69.072 9.82418 69.072 13.1182V24.6736L70.7502 25.5839V26.2574H61.3721V25.5892L63.0556 24.6736V13.0761C63.0556 11.266 62.264 10.5398 60.7757 10.5398C59.7836 10.5398 58.9286 10.8503 58.2953 11.3554V24.6999L59.9472 25.6102V26.2522H50.5638V25.6155L52.2526 24.6736Z"
			fill="white"
		/>
		<path
			d="M76.2123 17.8595C76.4075 21.5271 78.0541 24.3633 81.9595 24.3633C83.8488 24.3633 85.1893 23.4898 86.4506 22.8268V23.5477C85.4743 24.879 82.9991 26.747 79.5529 26.747C73.4996 26.747 70.407 23.3951 70.407 17.5859C70.407 11.9081 73.7899 8.37207 79.2574 8.37207C84.3977 8.37207 87.0681 10.9347 87.0681 17.6806V17.8542H76.2123V17.8595ZM76.112 17.0176L81.437 16.6913C81.437 12.1502 80.6559 9.13506 79.0938 9.13506C77.4367 9.13506 76.112 12.6343 76.112 17.0176Z"
			fill="white"
		/>
		<path
			d="M0 35.1026C0 25.4468 6.41215 22.0107 13.5526 22.0107C16.5819 22.0107 19.4423 22.4948 21.0414 23.1579L21.1786 29.8985H20.4978L16.3074 23.3789C15.5897 23.0737 14.9089 22.9526 13.6529 22.9526C9.85835 22.9526 7.91624 27.3254 7.97429 34.4975C8.04817 43.0746 9.5417 46.9685 13.0248 46.9685C13.9326 46.9685 14.6292 46.8317 15.1147 46.6212V37.4284L12.8137 36.1129V35.3447H23.9281V36.1656L21.6641 37.4284V46.4949C19.7853 47.2263 16.6135 47.9209 13.2676 47.9209C5.15083 47.9209 0 44.1691 0 35.1026Z"
			fill="white"
		/>
		<path
			d="M23.5375 30.5989V30.0411L31.0104 28.7256L31.8284 28.794V43.4751C31.8284 45.2431 32.6834 45.7903 34.1136 45.7903C35.0371 45.7903 35.871 45.443 36.5359 44.6485V31.4829L34.4883 30.5989V30.0201L41.9612 28.7046L42.7106 28.773V45.6009L44.7266 46.4428V46.9796L37.3539 47.8846L36.6045 47.8162V45.6062H36.3987C35.0318 46.8638 33.1214 47.953 30.7993 47.953C27.2159 47.953 25.5746 45.843 25.5746 42.6437V31.4829L23.5375 30.5989Z"
			fill="white"
		/>
		<path
			d="M70.7766 28.6938L71.3888 28.7623V34.1979H71.5576C72.3546 30.2146 74.1172 28.7254 76.2652 28.7254C76.6082 28.7254 76.9829 28.757 77.1887 28.8622V34.4242C76.8457 34.3242 76.2335 34.2874 75.653 34.2874C73.9483 34.2874 72.6923 34.5926 71.5893 35.0977V45.8427L73.2887 46.7846V47.4792H63.5992V46.7899L65.346 45.848V31.1828L63.2984 30.5724V30.0725L70.7766 28.6938Z"
			fill="white"
		/>
		<path
			d="M89.5432 29.1518V23.4162L87.4955 22.7006V22.2428L95.0371 20.8589L95.7548 20.9589V45.5903L97.8394 46.3428V46.9795L90.3982 47.9793L89.8176 47.9109V45.8745H89.6488C88.5563 46.9637 87.0522 47.9477 84.6985 47.9477C80.6348 47.9477 77.6689 44.8537 77.6689 38.5235C77.6689 31.8512 81.1151 28.573 86.3398 28.573C87.8333 28.573 88.9627 28.8466 89.5432 29.1518ZM89.5274 44.9221V30.199C89.0471 29.8938 88.7041 29.5149 87.4639 29.557C85.4479 29.6254 84.2024 32.6668 84.2024 38.0762C84.2024 42.9435 85.0996 45.664 87.7858 45.5745C88.5405 45.5482 89.1527 45.2799 89.5274 44.9221Z"
			fill="white"
		/>
		<path
			d="M106.125 28.6779L106.774 28.7463V45.8373L108.479 46.7792V47.4738H98.7893V46.7844L100.531 45.8425V31.4457L98.4463 30.6301V30.0618L106.125 28.6779ZM106.811 24.0631C106.811 25.8679 105.275 27.2255 103.502 27.2255C101.66 27.2255 100.225 25.8627 100.225 24.0631C100.225 22.2582 101.66 20.8638 103.502 20.8638C105.275 20.8638 106.811 22.2582 106.811 24.0631Z"
			fill="white"
		/>
		<path
			d="M129.615 45.8427V31.2879L127.567 30.5723V29.8672L135.009 28.4833L135.758 28.5517V30.7302H135.964C137.568 29.2989 139.959 28.3833 142.313 28.3833C145.553 28.3833 146.989 29.9145 146.989 33.3191V45.8111L148.725 46.7793V47.4739H139.035V46.7846L140.777 45.8427V33.6611C140.777 31.7878 139.959 31.0406 138.423 31.0406C137.431 31.0406 136.618 31.2932 135.864 31.851V45.8374L137.568 46.7793V47.4739H127.874V46.7846L129.615 45.8427Z"
			fill="white"
		/>
		<path
			d="M118.865 36.6972V34.2556C118.865 30.5775 118.063 29.3725 115.783 29.3725C115.514 29.3725 115.282 29.4041 115.012 29.4409L110.954 34.9239H110.384V29.8776C112.126 29.3409 114.305 28.7095 117.192 28.7095C122.153 28.7095 125.04 30.0829 125.04 34.2241V46.1267L126.818 46.595V47.0634C126.116 47.5001 124.707 47.9 123.161 47.9C120.712 47.9 119.54 47.1002 119.002 45.7584H118.833C117.794 47.1633 116.321 47.9632 114.004 47.9632C111.054 47.9632 109.044 46.1267 109.044 42.9485C109.044 39.8702 110.954 38.2021 114.843 37.4655L118.865 36.6972ZM118.865 44.9217V37.5654L117.625 37.6654C115.677 37.8338 114.975 39.0704 114.975 41.8119C114.975 44.7849 115.946 45.5584 117.324 45.5584C118.094 45.5532 118.532 45.3216 118.865 44.9217Z"
			fill="white"
		/>
		<path
			d="M54.6326 36.6972V34.2556C54.6326 30.5775 53.8305 29.3725 51.5453 29.3725C51.2762 29.3725 51.044 29.4041 50.7748 29.4409L46.7164 34.9239H46.1464V29.8776C47.888 29.3409 50.0676 28.7095 52.9544 28.7095C57.9152 28.7095 60.802 30.0829 60.802 34.2241V46.1267L62.5805 46.595V47.0634C61.8786 47.5001 60.4695 47.9 58.9232 47.9C56.4745 47.9 55.3029 47.1002 54.7646 45.7584H54.5957C53.556 47.1633 52.0783 47.9632 49.7668 47.9632C46.8167 47.9632 44.806 46.1267 44.806 42.9485C44.806 39.8702 46.7164 38.2021 50.6059 37.4655L54.6326 36.6972ZM54.6326 44.9217V37.5654L53.3924 37.6654C51.445 37.8338 50.7431 39.0704 50.7431 41.8119C50.7431 44.7849 51.7142 45.5584 53.0916 45.5584C53.8569 45.5532 54.2949 45.3216 54.6326 44.9217Z"
			fill="white"
		/>
		<path
			d="M162.707 22.8959C164.465 22.8959 166.108 23.1226 167.638 23.576C169.167 24.0294 170.491 24.7321 171.609 25.6842C172.75 26.6362 173.641 27.8717 174.28 29.3905C174.942 30.8866 175.273 32.6774 175.273 34.7629C175.273 36.9391 174.93 38.8319 174.245 40.4413C173.584 42.0281 172.682 43.3429 171.541 44.3857C170.422 45.4057 169.11 46.1651 167.603 46.6638C166.097 47.1625 164.499 47.4119 162.81 47.4119H151.203V46.8338L153.497 46.3578V23.916L151.203 23.474V22.8959H162.707ZM162.433 46.7998C163.301 46.7998 164.043 46.6412 164.659 46.3238C165.298 45.9838 165.811 45.3944 166.2 44.5557C166.588 43.6943 166.873 42.5155 167.055 41.0194C167.238 39.5006 167.329 37.5738 167.329 35.2389C167.329 32.7681 167.227 30.7732 167.021 29.2544C166.816 27.713 166.508 26.5229 166.097 25.6842C165.686 24.8228 165.15 24.2447 164.488 23.95C163.848 23.6553 163.095 23.508 162.228 23.508H160.721V46.7998H162.433Z"
			fill="white"
		/>
		<path
			d="M194.111 37.4491H182.881C182.995 39.7386 183.508 41.5521 184.421 42.8895C185.357 44.2043 187.012 44.8617 189.386 44.8617C190.162 44.8617 190.892 44.805 191.577 44.6917C192.262 44.5783 192.924 44.3857 193.563 44.1136V44.6577C193.038 45.4511 192.136 46.1991 190.858 46.9019C189.58 47.5819 188.016 47.9219 186.167 47.9219C183.018 47.9219 180.632 47.0379 179.012 45.2697C177.391 43.4789 176.581 41.0647 176.581 38.0271C176.581 35.0576 177.414 32.7114 179.08 30.9886C180.769 29.2431 183.04 28.3704 185.894 28.3704C188.77 28.3704 190.858 29.1184 192.159 30.6146C193.46 32.088 194.111 34.2075 194.111 36.9731V37.4491ZM185.757 29.0164C184.866 29.0164 184.159 29.6398 183.634 30.8866C183.132 32.1333 182.881 34.0942 182.881 36.769L188.188 36.531C188.188 33.6295 187.982 31.6573 187.571 30.6146C187.183 29.5491 186.578 29.0164 185.757 29.0164Z"
			fill="white"
		/>
		<path
			d="M204.748 35.2049C206.506 36.021 207.841 36.8824 208.754 37.7891C209.667 38.6959 210.123 39.9993 210.123 41.6994C210.123 43.6036 209.461 45.111 208.138 46.2218C206.814 47.3099 204.908 47.8539 202.42 47.8539C201.301 47.8539 200.183 47.7746 199.065 47.6159C197.946 47.4799 196.93 47.2419 196.017 46.9019L195.812 41.3934H196.394L201.29 47.0719C201.45 47.1172 201.621 47.1625 201.804 47.2079C201.986 47.2305 202.157 47.2419 202.317 47.2419C203.367 47.2419 204.132 46.9812 204.611 46.4598C205.113 45.9384 205.364 45.2471 205.364 44.3857C205.364 43.6149 205.136 43.0255 204.68 42.6175C204.223 42.2095 203.458 41.7561 202.386 41.2574L201.256 40.7474C199.544 39.954 198.209 39.0812 197.25 38.1292C196.314 37.1771 195.846 35.919 195.846 34.3549C195.846 32.4507 196.485 30.9659 197.763 29.9005C199.042 28.8351 200.822 28.3024 203.105 28.3024C204.04 28.3024 204.999 28.3477 205.981 28.4384C206.962 28.5291 207.841 28.6877 208.617 28.9144L208.788 34.0488H208.206L204.474 29.0844C204.269 29.0164 204.063 28.9711 203.858 28.9484C203.652 28.9031 203.458 28.8804 203.276 28.8804C202.363 28.8804 201.689 29.1184 201.256 29.5945C200.822 30.0705 200.605 30.6939 200.605 31.4646C200.605 32.3034 200.834 32.9267 201.29 33.3348C201.747 33.7428 202.545 34.2075 203.687 34.7289L204.748 35.2049Z"
			fill="white"
		/>
		<path
			d="M216.35 20.8218C217.24 20.8218 218.016 21.1278 218.678 21.7399C219.34 22.3519 219.671 23.1113 219.671 24.018C219.671 24.9248 219.34 25.6842 218.678 26.2962C218.016 26.8856 217.24 27.1803 216.35 27.1803C215.437 27.1803 214.661 26.8856 214.022 26.2962C213.383 25.6842 213.063 24.9248 213.063 24.018C213.063 23.1113 213.383 22.3519 214.022 21.7399C214.661 21.1278 215.437 20.8218 216.35 20.8218ZM211.283 29.5265L218.781 28.4384L219.637 28.5064V46.2898L221.554 46.8338V47.4119H211.42V46.8338L213.371 46.2898V30.9206L211.283 30.1045V29.5265Z"
			fill="white"
		/>
		<path
			d="M230.743 55.0285C227.753 55.0285 225.493 54.7678 223.964 54.2464C222.435 53.7251 221.67 52.8523 221.67 51.6282C221.67 50.9255 222.081 50.3475 222.903 49.8941C223.747 49.4634 224.832 49.1347 226.155 48.908V48.738C225.197 48.4886 224.421 48.0806 223.827 47.5139C223.234 46.9699 222.937 46.2445 222.937 45.3377C222.937 44.3403 223.302 43.4676 224.033 42.7195C224.786 41.9488 225.779 41.3821 227.011 41.0194V40.8494C225.779 40.3507 224.774 39.5799 223.998 38.5372C223.222 37.4718 222.834 36.2703 222.834 34.9329C222.834 32.8247 223.576 31.2039 225.06 30.0705C226.566 28.9144 228.518 28.3364 230.914 28.3364C231.622 28.3364 232.284 28.4044 232.9 28.5404C233.539 28.6764 234.11 28.8237 234.612 28.9824L240.638 28.2344V31.2946L236.29 29.9345V30.1385C237.203 30.7732 237.876 31.51 238.31 32.3487C238.766 33.1874 238.995 34.1055 238.995 35.1029C238.995 37.1884 238.241 38.7752 236.735 39.8633C235.228 40.9514 233.288 41.4954 230.914 41.4954C230.321 41.4954 229.762 41.4614 229.237 41.3934C228.712 41.3027 228.221 41.2121 227.765 41.1214C227.605 41.2801 227.468 41.4728 227.354 41.6994C227.24 41.9035 227.183 42.1415 227.183 42.4135C227.183 42.7989 227.297 43.1049 227.525 43.3316C227.776 43.5356 228.175 43.6376 228.723 43.6376H234.92C236.997 43.6376 238.55 43.9776 239.577 44.6577C240.604 45.3377 241.117 46.5165 241.117 48.194C241.117 50.1661 240.25 51.7982 238.515 53.0903C236.781 54.3824 234.19 55.0285 230.743 55.0285ZM233.14 35.0349C233.14 32.7001 232.946 31.1133 232.558 30.2745C232.17 29.4131 231.622 28.9824 230.914 28.9824C230.207 28.9824 229.659 29.4131 229.271 30.2745C228.906 31.1133 228.723 32.7114 228.723 35.0689C228.723 37.2678 228.906 38.7865 229.271 39.6253C229.659 40.4413 230.207 40.8494 230.914 40.8494C231.622 40.8494 232.17 40.43 232.558 39.5913C232.946 38.7299 233.14 37.2111 233.14 35.0349ZM230.846 54.3824C232.763 54.3824 234.19 54.0424 235.126 53.3624C236.084 52.705 236.564 51.8322 236.564 50.7442C236.564 50.1548 236.404 49.7127 236.084 49.4181C235.765 49.1234 235.194 48.976 234.373 48.976H226.943C226.783 49.2707 226.658 49.5767 226.566 49.8941C226.475 50.2341 226.429 50.6308 226.429 51.0842C226.429 52.0816 226.749 52.875 227.388 53.4644C228.05 54.0764 229.203 54.3824 230.846 54.3824Z"
			fill="white"
		/>
		<path
			d="M241.912 46.8338L243.864 46.2898V30.9206L241.81 30.1045V29.5265L249.274 28.4384L250.027 28.5064V30.8866H250.232C251.031 30.0705 252.001 29.4471 253.142 29.0164C254.284 28.5631 255.436 28.3364 256.6 28.3364C258.221 28.3364 259.408 28.7331 260.161 29.5265C260.914 30.3199 261.291 31.5666 261.291 33.2668V46.2898L263.243 46.8338V47.4119H253.314V46.8338L255.06 46.3918V33.6068C255.06 32.7001 254.854 32.0313 254.443 31.6006C254.033 31.1699 253.428 30.9546 252.629 30.9546C252.127 30.9546 251.67 31.0113 251.259 31.1246C250.871 31.2379 250.495 31.3853 250.129 31.5666V46.3918L251.841 46.8338V47.4119H241.912V46.8338Z"
			fill="white"
		/>
	</svg>